<svg xmlns="http://www.w3.org/2000/svg" viewBox="0 0 566 578"><defs><style>.a,.b,.d{fill:#f7931e;}.b,.d{stroke:#fff;stroke-miterlimit:10;}.b{stroke-width:8px;}.c{fill:#fff;}.d{stroke-width:9px;}</style></defs><rect class="a" x="58" width="508" height="578" rx="71.12"/><rect class="b" x="4" y="91" width="107" height="39" rx="12"/><rect class="b" x="4" y="210" width="107" height="39" rx="12"/><rect class="b" x="4" y="329" width="107" height="39" rx="12"/><rect class="b" x="4" y="448" width="107" height="39" rx="12"/><circle class="c" cx="323" cy="292" r="156"/><path class="a" d="M956.27,449.27C923.89,482.14,903,516.23,897,551.9A27.4,27.4,0,0,0,920.75,593h118.5A27.4,27.4,0,0,0,1063,551.9c-7-39.94-29.63-72.84-59.25-102.63A27.41,27.41,0,0,0,956.27,449.27Z" transform="translate(-657 -199)"/><circle class="d" cx="323.5" cy="239.5" r="56"/></svg>